{"title":"A.and.E.Ancient.Mysteries.Curse.Of.The.Hope.Diamond.1997.DVDRip.","uid":6652220,"size":740052684,"categoryP":"video","categoryS":"movies","magnet":"?xt=urn:btih:08e3b85d6d51739a5de7d87855936e00021680b4&amp;dn=A.and.E.Ancient.Mysteries.Curse.Of.The.Hope.Diamond.1997.DVDRip.&amp;tr=udp%3A%2F%2Ftracker.openbittorrent.com%3A80&amp;tr=udp%3A%2F%2Fopen.demonii.com%3A1337&amp;tr=udp%3A%2F%2Ftracker.coppersurfer.tk%3A6969&amp;tr=udp%3A%2F%2Fexodus.desync.com%3A6969","seeders":0,"leechers":1,"uploader":"TvTeam","files":5,"time":1315202460,"description":". \n  &lt;a href=&quot;\nhttp://www.torrenting.com/&quot; rel=&quot;nofollow&quot; target=&quot;_NEW&quot;&gt;\nhttp://www.torrenting.com/&lt;/a&gt;        :     Greatest Movie Tracker on The Net!!!\n &lt;a href=&quot;\nhttp://www.Torrenting.com&quot; rel=&quot;nofollow&quot; target=&quot;_NEW&quot;&gt;\nhttp://www.Torrenting.com&lt;/a&gt;          :     Once &amp; For all ;)\n\n\n               www . Torrenting . Com \n\n(((((((((((((= Enjoy No RAR releases =))))))))))))))))))))\n\n\n...................................NFO:....................................\n\n.                                             \n                               \n                                 \n                                      \n                                      \n                                       \n    CoaX!&lt;CPH&gt;                         \n                               \n                         \n                            \n          \n    Team FiCO &lt;Final Coalition&gt; 2k8 Presents:    \n    \n\nA.and.E.Ancient.Mysteries.Curse.Of.The.Hope.Diamond.1997.DVDRip.XviD-FiCO\n &lt;a href=&quot;\nhttp://www.imdb.com/title/tt1276190/&quot; rel=&quot;nofollow&quot; target=&quot;_NEW&quot;&gt;\nhttp://www.imdb.com/title/tt1276190/&lt;/a&gt;\nSubtitles: None\nDate: 2011.08\n\nGeneral\nFormat                           : AVI\nFormat/Info                      : Audio Video Interleave\nFile size                        : 697 MiB\nDuration                         : 45mn 50s\nOverall bit rate                 : 2 125 Kbps\nWriting application              : VirtualDubMod 1.5.10.2 (build 2542/release)\nWriting library                  : VirtualDubMod build 2542/release\n\nVideo\nID                               : 0\nFormat                           : MPEG-4 Visual\nFormat profile                   : Advanced Simple@L5\nFormat settings, BVOP            : Yes\nFormat settings, QPel            : No\nFormat settings, GMC             : No warppoints\nFormat settings, Matrix          : Default (H.263)\nCodec ID                         : XVID\nCodec ID/Hint                    : XviD\nDuration                         : 45mn 50s\nBit rate                         : 1 921 Kbps\nWidth                            : 640 pixels\nHeight                           : 480 pixels\nDisplay aspect ratio             : 4:3\nFrame rate                       : 29.970 fps\nResolution                       : 8 bits\nColorimetry                      : 4:2:0\nScan type                        : Progressive\nBits/(Pixel*Frame)               : 0.209\nStream size                      : 630 MiB (90%)\nWriting library                  : XviD 61\n\nAudio\nID                               : 1\nFormat                           : AC-3\nFormat/Info                      : Audio Coding 3\nFormat_Settings_ModeExtension    : CM (complete main)\nCodec ID                         : 2000\nDuration                         : 45mn 50s\nBit rate mode                    : Constant\nBit rate                         : 192 Kbps\nChannel(s)                       : 2 channels\nChannel positions                : Front: L R\nSampling rate                    : 48.0 KHz\nStream size                      : 63.0 MiB (9%)\nAlignment                        : Split accross interleaves\nInterleave, duration             : 33 ms (1.00 video frame)\nInterleave, preload duration     : 500 ms\n\n\n\n\nRelease notes:\nenjoy!\n\n\n                                                                     \n                                                             \n                                                               \n                                                               \n                       \n      \n              Greetz from Team FiCO:               \n              \n                                                             \n                                                             \n           BLooDWeiSeR,CULTXviD,SiCK,DoNE,LAP,TH30R1STS              \n                                                                             \n               WinBeta, DvF, WASTE, BERC, KALEVALA, Jiggly                   \n                                                                             \n                                                             \n                                       \n                             \n                      \n                  \n           \n            \n                    \n                  \n                \n                            \n                                        \n                                        \n                                            \n                                                    \n                                                              \n                      you know where to find us...                     \n                        \n   NFO By: CoaXCable/CoolPHat &lt;#CPH&gt;","torrent":{"xt":"urn:btih:08e3b85d6d51739a5de7d87855936e00021680b4","amp;dn":"A.and.E.Ancient.Mysteries.Curse.Of.The.Hope.Diamond.1997.DVDRip.","amp;tr":["udp%3A%2F%2Ftracker.openbittorrent.com%3A80","udp%3A%2F%2Fopen.demonii.com%3A1337","udp%3A%2F%2Ftracker.coppersurfer.tk%3A6969","udp%3A%2F%2Fexodus.desync.com%3A6969"],"infoHash":"08e3b85d6d51739a5de7d87855936e00021680b4","infoHashBuffer":{"type":"Buffer","data":[8,227,184,93,109,81,115,154,93,231,216,120,85,147,110,0,2,22,128,180]},"announce":[],"urlList":[]}}